<?xml version="1.0" encoding="UTF-8"?>
<svg width="20px" height="20px" viewBox="0 0 20 20" version="1.1" xmlns="http://www.w3.org/2000/svg" xmlns:xlink="http://www.w3.org/1999/xlink">
    <!-- Generator: Sketch 60 (88103) - https://sketch.com -->
    <title>图标/计算/云数据库MySQL/灰色</title>
    <desc>Created with Sketch.</desc>
    <g id="图标/计算/云数据库MySQL/灰色" stroke="none" stroke-width="1" fill="none" fill-rule="evenodd">
        <path d="M6.96050258,2.84002126 C6.98244709,2.87802761 6.994,2.92114106 6.994,2.96502779 L6.994,3.54162377 C6.994,3.63096089 6.94632835,3.7135085 6.86894978,3.75815911 L3.699,5.58735027 L5.83084188,6.81890167 C5.95034109,6.88801298 5.99128155,7.04088035 5.92231831,7.16046507 L5.67232286,7.5934804 C5.60334828,7.71308878 5.45045111,7.75405917 5.33087723,7.68502483 L5.33085198,7.68493057 L3.199,6.45335027 L3.19922863,13.722 L9.493,17.3543503 L9.49366143,14.894 C9.49376575,14.7559551 9.60568369,14.6440672 9.74372863,14.644 L10.2437286,14.644 C10.3620754,14.6439424 10.4612155,14.7261676 10.487126,14.8366103 L10.4936615,14.894 L10.4936615,14.894 L10.493,17.3553503 L16.7882286,13.722 L16.788,6.45335027 L14.6566519,7.68497949 C14.5570677,7.74261314 14.4342805,7.72380911 14.3561398,7.64675812 L14.3151891,7.5935592 L14.3151891,7.5935592 L14.0651799,7.16055184 C13.9962361,7.04096576 14.0371619,6.88810684 14.1566344,6.81896653 L16.288,5.58735027 L13.1190711,3.75915509 C13.0416808,3.71450763 12.994,3.63195343 12.994,3.54260771 L12.994,2.965006 C12.994,2.82693481 13.1059288,2.715006 13.244,2.715006 C13.287883,2.715006 13.330993,2.72655697 13.3689971,2.74849798 L17.5384573,5.15566243 C17.6931578,5.24497883 17.7884573,5.41004234 17.7884573,5.58867513 L17.7884573,14.0113249 C17.7884573,14.1899577 17.6931578,14.3550212 17.5384573,14.4443376 L10.2442286,18.6556624 C10.0895281,18.7449788 9.89892917,18.7449788 9.74422863,18.6556624 L2.45,14.4443376 C2.29529946,14.3550212 2.2,14.1899577 2.2,14.0113249 L2.2,5.58867513 C2.2,5.41004234 2.29529946,5.24497883 2.45,5.15566243 L6.61899347,2.74852521 C6.73856454,2.67948601 6.89146338,2.72045018 6.96050258,2.84002126 Z M9.99422863,6.8 C10.8921036,6.8 11.6609786,7.32961397 12.0219786,8.09047312 C13.1409786,8.28246912 13.9942286,9.25132393 13.9942286,10.4250495 C13.9941036,11.693648 12.9964786,12.7210016 11.7442286,12.7873753 L11.7442286,12.8 L8.24422863,12.8 C7.00160363,12.8 5.99422863,11.792771 5.99422863,10.5499219 C5.99422863,9.4351951 6.80660363,8.51683923 7.87022863,8.33784296 C8.16947863,7.44636153 9.00197863,6.8 9.99422863,6.8 Z M9.99422863,7.8 C9.50276558,7.8 9.06795592,8.09097195 8.86709106,8.53213475 L8.81824321,8.65606985 L8.675143,9.0823729 C8.64577967,9.16984778 8.57062032,9.23403653 8.47962817,9.2493495 L8.03618391,9.32397624 C7.43706486,9.42480132 6.99422863,9.94045481 6.99422863,10.5499219 C6.99422863,11.197263 7.48605806,11.729541 8.11641491,11.7935471 L8.24422863,11.8 L11.4642286,11.8 L11.6912994,11.788777 C12.3761708,11.7524764 12.9219979,11.2251822 12.9876101,10.5598515 L12.9942286,10.4250495 C12.9942286,9.80038041 12.5717079,9.26474603 11.9817589,9.10454808 L11.8528716,9.0760708 L11.4690407,9.0102138 C11.3888294,8.99645128 11.3203371,8.94450682 11.2854512,8.87097972 L11.1185134,8.51913451 C10.9297833,8.12135883 10.5550565,7.85248562 10.1248308,7.80688698 L9.99422863,7.8 Z M10.7442286,1.3 C10.8822998,1.3 10.9942286,1.41192881 10.9942286,1.55 L10.9942286,3.05 C10.9942286,3.18807119 10.8822998,3.3 10.7442286,3.3 L9.24422863,3.3 C9.10615745,3.3 8.99422863,3.18807119 8.99422863,3.05 L8.99422863,1.55 C8.99422863,1.41192881 9.10615745,1.3 9.24422863,1.3 L10.7442286,1.3 Z" id="形状结合" fill="#101724" fill-rule="nonzero"></path>
    </g>
</svg>