<?xml version="1.0" encoding="UTF-8"?>
<svg width="20px" height="20px" viewBox="0 0 20 20" version="1.1" xmlns="http://www.w3.org/2000/svg" xmlns:xlink="http://www.w3.org/1999/xlink">
    <!-- Generator: Sketch 60 (88103) - https://sketch.com -->
    <title>图标/计算/负载均衡(SLB) /灰色</title>
    <desc>Created with Sketch.</desc>
    <g id="图标/计算/负载均衡(SLB)-/灰色" stroke="none" stroke-width="1" fill="none" fill-rule="evenodd">
        <g id="编组" transform="translate(1.000000, 1.000000)" fill="#101724" fill-rule="nonzero">
            <path d="M9.75,12 C9.88807119,12 10,12.1119288 10,12.25 L10,15 L13,15 L13,13.5 C13,13.2238576 13.2238576,13 13.5,13 L17.5,13 C17.7761424,13 18,13.2238576 18,13.5 L18,17.5 C18,17.7761424 17.7761424,18 17.5,18 L13.5,18 C13.2238576,18 13,17.7761424 13,17.5 L13,16 L9.5,16 C9.22385763,16 9,15.7761424 9,15.5 L9,12.25 C9,12.1119288 9.11192881,12 9.25,12 L9.75,12 Z M17,14 L14,14 L14,17 L17,17 L17,14 Z M4.5,6.5 C4.77614237,6.5 5,6.72385763 5,7 L5,8.5 L6.75,8.5 C6.88807119,8.5 7,8.61192881 7,8.75 L7,9.25 C7,9.38807119 6.88807119,9.5 6.75,9.5 L5,9.5 L5,11 C5,11.2761424 4.77614237,11.5 4.5,11.5 L0.5,11.5 C0.223857625,11.5 0,11.2761424 0,11 L0,7 C0,6.72385763 0.223857625,6.5 0.5,6.5 L4.5,6.5 Z M4,7.5 L1,7.5 L1,10.5 L4,10.5 L4,7.5 Z M10.25,8 C10.3880712,8 10.5,8.11192881 10.5,8.25 L10.5,9.75 C10.5,9.88807119 10.3880712,10 10.25,10 L8.75,10 C8.61192881,10 8.5,9.88807119 8.5,9.75 L8.5,8.25 C8.5,8.11192881 8.61192881,8 8.75,8 L10.25,8 Z M17.5,0 C17.7761424,0 18,0.223857625 18,0.5 L18,4.5 C18,4.77614237 17.7761424,5 17.5,5 L13.5,5 C13.2238576,5 13,4.77614237 13,4.5 L13,3 L10,3 L10,5.75 C10,5.88807119 9.88807119,6 9.75,6 L9.25,6 C9.11192881,6 9,5.88807119 9,5.75 L9,2.5 C9,2.22385763 9.22385763,2 9.5,2 L13,2 L13,0.5 C13,0.223857625 13.2238576,0 13.5,0 L17.5,0 Z M17,1 L14,1 L14,4 L17,4 L17,1 Z" id="形状结合"></path>
        </g>
    </g>
</svg>