<?xml version="1.0" encoding="UTF-8"?>
<svg width="20px" height="20px" viewBox="0 0 20 20" version="1.1" xmlns="http://www.w3.org/2000/svg" xmlns:xlink="http://www.w3.org/1999/xlink">
    <!-- Generator: Sketch 60 (88103) - https://sketch.com -->
    <title>图标/安全/Web应用防火墙（EBS）/灰色</title>
    <desc>Created with Sketch.</desc>
    <g id="图标/安全/Web应用防火墙（EBS）/灰色" stroke="none" stroke-width="1" fill="none" fill-rule="evenodd">
        <g id="Web防火墙" transform="translate(6.000000, 6.000000)" fill="#101724" fill-rule="nonzero">
            <path d="M8,6.42857143 C8,6.74416271 7.77614237,7 7.5,7 L0.5,7 C0.223857625,7 0,6.74416271 0,6.42857143 L0,0.444444444 C0,0.198984556 0.223857625,0 0.5,0 L7.5,0 C7.77614237,0 8,0.223857625 8,0.5 L8,6.42857143 Z M7,4 L6,4 L6,6 L7,6 L7,4 Z M5,4 L1,4 L1,6 L5,6 L5,4 Z M2,1 L1,1 L1,3 L2,3 L2,1 Z M7,1 L3,1 L3,3 L7,3 L7,1 Z" id="形状结合"></path>
        </g>
        <rect id="矩形备份" fill="#101724" fill-rule="nonzero" x="9" y="2" width="2" height="2" rx="0.25"></rect>
        <path d="M13.2847431,2.03995913 L17.5677876,2.64101593 L17.5677876,2.64101593 C17.8154266,2.67579593 18,2.89292364 18,3.14946012 L18,11.8292547 C17.8484074,14.927391 12.2842247,17.2021546 9.9998812,18 L9.51354723,17.8252357 L9.11007659,17.6729791 L8.67480006,17.5012846 C6.12904951,16.4740966 2.33010887,14.5316072 2.01746356,12.030133 L2,11.8292547 L2,3.14946192 C2,2.89292467 2.18457451,2.67579655 2.43221435,2.64101746 L6.71525684,2.03995926 C6.85198822,2.02077114 6.97838594,2.11605878 6.99757406,2.25279016 C6.99918939,2.26430073 7,2.27590995 7,2.28753332 L7,2.81726929 C7,2.94189089 6.90821813,3.04748129 6.78481054,3.06483388 L3,3.59702354 L3,3.59702354 L2.99604279,11.7380366 L3.0093359,11.8995414 C3.21754874,13.5654518 5.9246426,15.361752 9.51519543,16.7330515 L10.002,16.9130797 L10.3052047,16.8018927 C13.9225749,15.4532503 16.7544652,13.6332009 16.9865189,11.9713013 L17,11.8292547 L17,3.59702354 L13.2151895,3.06483388 C13.0917819,3.04748129 13,2.94189089 13,2.81726929 L13,2.2875332 C13,2.14946202 13.1119288,2.0375332 13.25,2.0375332 C13.2616233,2.0375332 13.2732325,2.03834381 13.2847431,2.03995913 Z" id="路径" fill="#101724" fill-rule="nonzero"></path>
    </g>
</svg>