<?xml version="1.0" encoding="UTF-8"?>
<svg width="20px" height="20px" viewBox="0 0 20 20" version="1.1" xmlns="http://www.w3.org/2000/svg" xmlns:xlink="http://www.w3.org/1999/xlink">
    <!-- Generator: Sketch 60 (88103) - https://sketch.com -->
    <title>图标/计算/弹性推理服务EIS/灰色</title>
    <desc>Created with Sketch.</desc>
    <g id="图标/计算/弹性推理服务EIS/灰色" stroke="none" stroke-width="1" fill="none" fill-rule="evenodd">
        <path d="M17.5,2 C17.7761424,2 18,2.22385763 18,2.5 L18,17.5 C18,17.7761424 17.7761424,18 17.5,18 L2.5,18 C2.22385763,18 2,17.7761424 2,17.5 L2,2.5 C2,2.22385763 2.22385763,2 2.5,2 L17.5,2 Z M17.00025,3.00003125 L3.00025,3.00003125 L3.00025,13.000375 L6.75,13.0000234 C6.86834673,12.9999923 6.96749453,13.0822135 6.99341538,13.1926545 L7,13.25 L7,13.25 L7,13.75 C6.99997461,13.8880613 6.88806127,13.999986 6.75,14.0000254 L3.00025,14.0004063 L3.00025,16.9997187 L17.00025,16.9997187 L17.00025,14.0004063 L13.25,14.0000254 C13.1119387,13.999986 13.0000254,13.8880613 13,13.75 L13,13.25 C12.9999766,13.1119288 13.1119054,13 13.2499766,13 L13.25,13.0000234 L17.00025,13.000375 L17.00025,3.00003125 Z M10.75,12.5 C10.8880712,12.5 11,12.6119288 11,12.75 L11,14.25 C11,14.3880712 10.8880712,14.5 10.75,14.5 L9.25,14.5 C9.11192881,14.5 9,14.3880712 9,14.25 L9,12.75 C9,12.6119288 9.11192881,12.5 9.25,12.5 L10.75,12.5 Z M15.25,5 C15.3880712,5 15.5,5.11192881 15.5,5.25 L15.5,5.75 C15.5,5.88807119 15.3880712,6 15.25,6 L12.5,6 L12.5,7 L15,7 C15.2761424,7 15.5,7.22385763 15.5,7.5 L15.5,9.5 C15.5,9.74545989 15.3231248,9.94960837 15.0898756,9.99194433 L15,10 L11.75,10 C11.6119288,10 11.5,9.88807119 11.5,9.75 L11.5,9.25 C11.5,9.11192881 11.6119288,9 11.75,9 L14.5,9 L14.5,8 L12,8 C11.7238576,8 11.5,7.77614237 11.5,7.5 L11.5,5.5 C11.5,5.22385763 11.7238576,5 12,5 L15.25,5 Z M10.25,5 C10.3880712,5 10.5,5.11192881 10.5,5.25 L10.5,9.75 C10.5,9.88807119 10.3880712,10 10.25,10 L9.75,10 C9.61192881,10 9.5,9.88807119 9.5,9.75 L9.5,5.25 C9.5,5.11192881 9.61192881,5 9.75,5 L10.25,5 Z M8.25,5 C8.38807119,5 8.5,5.11192881 8.5,5.25 L8.5,5.75 C8.5,5.88807119 8.38807119,6 8.25,6 L5.5,6 L5.5,7 L8.25,7 C8.38807119,7 8.5,7.11192881 8.5,7.25 L8.5,7.75 C8.5,7.88807119 8.38807119,8 8.25,8 L5.5,8 L5.5,9 L8.25,9 C8.38807119,9 8.5,9.11192881 8.5,9.25 L8.5,9.75 C8.5,9.88807119 8.38807119,10 8.25,10 L5,10 C4.72385763,10 4.5,9.77614237 4.5,9.5 L4.5,5.5 C4.5,5.22385763 4.72385763,5 5,5 L8.25,5 Z" id="形状结合" fill="#101724" fill-rule="nonzero"></path>
    </g>
</svg>