<?xml version="1.0" encoding="UTF-8"?>
<svg width="20px" height="20px" viewBox="0 0 20 20" version="1.1" xmlns="http://www.w3.org/2000/svg" xmlns:xlink="http://www.w3.org/1999/xlink">
    <!-- Generator: Sketch 60 (88103) - https://sketch.com -->
    <title>图标/管理与监控/账单管理/灰色</title>
    <desc>Created with Sketch.</desc>
    <g id="图标/管理与监控/账单管理/灰色" stroke="none" stroke-width="1" fill="none" fill-rule="evenodd">
        <g id="账单管理" transform="translate(2.000000, 1.500000)" fill="#101724">
            <path d="M15,1 C15.2761424,1 15.5,1.23984746 15.5,1.53571429 L15.5,16.4642857 C15.5,16.7601525 15.2761424,17 15,17 L1,17 C0.723857625,17 0.5,16.7601525 0.5,16.4642857 L0.5,1.53571429 C0.5,1.23984746 0.723857625,1 1,1 L4.5,1 L4.5,2.071 L1.5,2.07142857 L1.5,15.9285714 L14.5,15.9285714 L14.5,2.07142857 L11.5,2.071 L11.5,1 L15,1 Z" id="形状结合" fill-rule="nonzero"></path>
            <path d="M11.5,0 C11.7761424,0 12,0.223857625 12,0.5 L12,3.5 C12,3.77614237 11.7761424,4 11.5,4 L4.5,4 C4.22385763,4 4,3.77614237 4,3.5 L4,0.5 C4,0.223857625 4.22385763,0 4.5,0 L11.5,0 Z M11,1 L5,1 L5,3 L11,3 L11,1 Z" id="矩形" fill-rule="nonzero"></path>
            <path d="M7.75,12.5 C7.88807119,12.5 8,12.6119288 8,12.75 L8,13.25 C8,13.3880712 7.88807119,13.5 7.75,13.5 L4.25,13.5 C4.11192881,13.5 4,13.3880712 4,13.25 L4,12.75 C4,12.6119288 4.11192881,12.5 4.25,12.5 L7.75,12.5 Z M11.75,9 C11.8880712,9 12,9.11192881 12,9.25 L12,9.75 C12,9.88807119 11.8880712,10 11.75,10 L4.25,10 C4.11192881,10 4,9.88807119 4,9.75 L4,9.25 C4,9.11192881 4.11192881,9 4.25,9 L11.75,9 Z M11.75,6 C11.8880712,6 12,6.11192881 12,6.25 L12,6.75 C12,6.88807119 11.8880712,7 11.75,7 L4.25,7 C4.11192881,7 4,6.88807119 4,6.75 L4,6.25 C4,6.11192881 4.11192881,6 4.25,6 L11.75,6 Z" id="形状结合"></path>
            <rect id="矩形" x="10" y="12" width="2" height="2" rx="0.25"></rect>
        </g>
    </g>
</svg>