<?xml version="1.0" encoding="UTF-8"?>
<svg width="20px" height="20px" viewBox="0 0 20 20" version="1.1" xmlns="http://www.w3.org/2000/svg" xmlns:xlink="http://www.w3.org/1999/xlink">
    <!-- Generator: Sketch 60 (88103) - https://sketch.com -->
    <title>图标/计算/云服务器/蓝色</title>
    <desc>Created with Sketch.</desc>
    <g id="图标/计算/云服务器/蓝色" stroke="none" stroke-width="1" fill="none" fill-rule="evenodd">
        <path d="M17.5,2 C17.7761424,2 18,2.22385763 18,2.5 L18,17.5 C18,17.7761424 17.7761424,18 17.5,18 L2.5,18 C2.22385763,18 2,17.7761424 2,17.5 L2,2.5 C2,2.22385763 2.22385763,2 2.5,2 L17.5,2 Z M17,3 L3,3 L3,17.00025 L17,17.00025 L17,13.00025 L5.25,13.00025 C5.11192881,13.00025 5,12.8883212 5,12.75025 L5,12.2495 C5,12.1114288 5.11192881,11.9995 5.25,11.9995 L17,11.9995 L17,8.00025 L5.25,8.00025 C5.11192881,8.00025 5,7.88832119 5,7.75025 L5,7.2505 C5,7.11242881 5.11192881,7.0005 5.25,7.0005 L17,7.0005 L17,3 Z M15.75,14 C15.8880712,14 16,14.1119288 16,14.25 L16,15.75 C16,15.8880712 15.8880712,16 15.75,16 L14.25,16 C14.1119288,16 14,15.8880712 14,15.75 L14,14.25 C14,14.1119288 14.1119288,14 14.25,14 L15.75,14 Z M15.75,9 C15.8880712,9 16,9.11192881 16,9.25 L16,10.75 C16,10.8880712 15.8880712,11 15.75,11 L14.25,11 C14.1119288,11 14,10.8880712 14,10.75 L14,9.25 C14,9.11192881 14.1119288,9 14.25,9 L15.75,9 Z M15.75,4 C15.8880712,4 16,4.11192881 16,4.25 L16,5.75 C16,5.88807119 15.8880712,6 15.75,6 L14.25,6 C14.1119288,6 14,5.88807119 14,5.75 L14,4.25 C14,4.11192881 14.1119288,4 14.25,4 L15.75,4 Z" id="形状结合" fill="#101724" fill-rule="nonzero"></path>
    </g>
</svg>