<?xml version="1.0" encoding="UTF-8"?>
<svg width="20px" height="20px" viewBox="0 0 20 20" version="1.1" xmlns="http://www.w3.org/2000/svg" xmlns:xlink="http://www.w3.org/1999/xlink">
    <!-- Generator: Sketch 60 (88103) - https://sketch.com -->
    <title>图标/计算/弹性公网IP(EIP)/灰色</title>
    <desc>Created with Sketch.</desc>
    <g id="图标/计算/弹性公网IP(EIP)/灰色" stroke="none" stroke-width="1" fill="none" fill-rule="evenodd">
        <path d="M3.5,11.2857143 C3.5,11.6354199 3.52610349,11.9788544 3.57641566,12.3140691 L5.5,12.3142857 C5.77614237,12.3142857 6,12.5445393 6,12.8285714 L6.00005985,16.5560001 C7.10301857,17.442876 8.49149884,17.9714286 10,17.9714286 C11.5089558,17.9714286 12.8978184,17.4425574 14.0009373,16.5551981 L14,12.8285714 C14,12.5445393 14.2238576,12.3142857 14.5,12.3142857 L16.4235843,12.3140691 C16.4738965,11.9788544 16.5,11.6354199 16.5,11.2857143 C16.5,8.50485331 14.8493611,6.12053477 12.5008734,5.11277131 L12.5,5.62857143 C12.5,5.91260359 12.2761424,6.14285714 12,6.14285714 L8,6.14285714 C7.72385763,6.14285714 7.5,5.91260359 7.5,5.62857143 L7.5,5.112 L7.27501308,5.21410971 C5.04630262,6.27411576 3.5,8.59417646 3.5,11.2857143 Z M5,13.3428571 L2,13.3428571 L2,16.4285714 L5,16.4285714 L5,13.3428571 Z M18,13.3428571 L15,13.3428571 L15,16.4285714 L18,16.4285714 L18,13.3428571 Z M10.75,10 C10.8880712,10 11,10.1119288 11,10.25 L11,11.75 C11,11.8880712 10.8880712,12 10.75,12 L9.25,12 C9.11192881,12 9,11.8880712 9,11.75 L9,10.25 C9,10.1119288 9.11192881,10 9.25,10 L10.75,10 Z M11.5,2.02857143 L8.5,2.02857143 L8.5,5.11428571 L11.5,5.11428571 L11.5,2.02857143 Z M7.5,1.51428571 C7.5,1.23025356 7.72385763,1 8,1 L12,1 C12.2761424,1 12.5,1.23025356 12.5,1.51428571 L12.5,4.57 L12.5011254,4.01079534 C15.4135184,5.07013001 17.5,7.92729844 17.5,11.2857143 C17.5,11.6344284 17.4775051,11.9777384 17.4339264,12.3141929 L18.5,12.3142857 C18.7761424,12.3142857 19,12.5445393 19,12.8285714 L19,16.9428571 C19,17.2268893 18.7761424,17.4571429 18.5,17.4571429 L14.5,17.4571429 L14.3560587,17.5661942 C13.1281231,18.4688499 11.6243669,19 10,19 C8.31137242,19 6.75308715,18.4259936 5.49951292,17.4573315 L1.5,17.4571429 C1.22385763,17.4571429 1,17.2268893 1,16.9428571 L1,12.8285714 C1,12.5445393 1.22385763,12.3142857 1.5,12.3142857 L2.56607365,12.3141929 C2.52249493,11.9777384 2.5,11.6344284 2.5,11.2857143 C2.5,7.92691523 4.58695773,5.069478 7.49987158,4.01043279 L7.5,4.57 L7.5,1.51428571 Z" id="形状结合" fill="#101724" fill-rule="nonzero"></path>
    </g>
</svg>