<?xml version="1.0" encoding="UTF-8"?>
<svg width="20px" height="20px" viewBox="0 0 20 20" version="1.1" xmlns="http://www.w3.org/2000/svg" xmlns:xlink="http://www.w3.org/1999/xlink">
    <!-- Generator: Sketch 60 (88103) - https://sketch.com -->
    <title>图标/计算/对象存储(S3) /灰色</title>
    <desc>Created with Sketch.</desc>
    <g id="图标/计算/对象存储(S3)-/灰色" stroke="none" stroke-width="1" fill="none" fill-rule="evenodd">
        <path d="M10,1.5 C14.320094,1.5 17.8403992,3.21215155 17.9947239,5.3533588 L18,5.5 L18,14.5 C18,16.709139 14.418278,18.5 10,18.5 C5.581722,18.5 2,16.709139 2,14.5 L2,5.5 C2,3.290861 5.581722,1.5 10,1.5 Z M17.0015351,13.4366197 C15.6372389,14.6670879 13.0131565,15.5 10,15.5 C6.98757079,15.5 4.36402787,14.6674899 2.99945298,13.4375106 L3,14.5 C3,15.968427 6.06314597,17.5 10,17.5 C13.936854,17.5 17,15.968427 17,14.5 L17.0015351,13.4366197 Z M17.0015351,10.4366197 C15.6372389,11.6670879 13.0131565,12.5 10,12.5 C6.98757079,12.5 4.36402787,11.6674899 2.99945298,10.4375106 L3,11.5 C3,12.968427 6.06314597,14.5 10,14.5 C13.936854,14.5 17,12.968427 17,11.5 L17.0015351,10.4366197 Z M17.0015351,7.43661968 C15.6372389,8.66708788 13.0131565,9.5 10,9.5 C6.98757079,9.5 4.36402787,8.66748991 2.99945298,7.43751061 L3,8.5 C3,9.96842701 6.06314597,11.5 10,11.5 C13.936854,11.5 17,9.96842701 17,8.5 L17.0015351,7.43661968 Z M10,2.5 C6.06314597,2.5 3,4.03157299 3,5.5 C3,6.96842701 6.06314597,8.5 10,8.5 C13.936854,8.5 17,6.96842701 17,5.5 C17,4.03157299 13.936854,2.5 10,2.5 Z M13.75,4.5 C13.8880712,4.5 14,4.61192881 14,4.75 L14,6.25 C14,6.38807119 13.8880712,6.5 13.75,6.5 L12.25,6.5 C12.1119288,6.5 12,6.38807119 12,6.25 L12,4.75 C12,4.61192881 12.1119288,4.5 12.25,4.5 L13.75,4.5 Z" id="形状结合" fill="#101724" fill-rule="nonzero"></path>
    </g>
</svg>