<?xml version="1.0" encoding="UTF-8"?>
<svg width="20px" height="20px" viewBox="0 0 20 20" version="1.1" xmlns="http://www.w3.org/2000/svg" xmlns:xlink="http://www.w3.org/1999/xlink">
    <!-- Generator: Sketch 60 (88103) - https://sketch.com -->
    <title>图标/域名与网站/网站备案/灰色</title>
    <desc>Created with Sketch.</desc>
    <g id="图标/域名与网站/网站备案/灰色" stroke="none" stroke-width="1" fill="none" fill-rule="evenodd">
        <g id="网站备案" transform="translate(2.000000, 2.000000)" fill="#101724">
            <g fill-rule="nonzero">
                <path d="M11.75,0 C11.8880712,-2.53632657e-17 12,0.111928813 12,0.25 L12,0.75 C12,0.888071187 11.8880712,1 11.75,1 L1,1 L1,11 L15,11 L15,4.25 C15,4.11192881 15.1119288,4 15.25,4 L15.75,4 C15.8880712,4 16,4.11192881 16,4.25 L16,13.02 C16,13.5410946 15.5879943,13.9603061 15.0740766,13.9973396 L15,14 L8.5,14 L8.5,15 L10.75,15 C10.8880712,15 11,15.1119288 11,15.25 L11,15.75 C11,15.8880712 10.8880712,16 10.75,16 L5.25,16 C5.11192881,16 5,15.8880712 5,15.75 L5,15.25 C5,15.1119288 5.11192881,15 5.25,15 L7.5,15 L7.5,14 L1,14 C0.47707952,14 0.0413047497,13.6044746 0.00276927576,13.0937187 L0,13.02 L0,0.98 C0,0.45890543 0.412005657,0.0396938821 0.925923386,0.00266038302 L1,0 L11.75,0 Z M15,12 L1,12 L1,13 L15,13 L15,12 Z" id="形状结合"></path>
                <path d="M8.00098902,2.5 L8.0691293,2.504668 L11.0681403,2.91750164 C11.2846859,2.94731057 11.4529193,3.11305954 11.4915941,3.32149777 L11.5,3.41317021 L11.5,7.00961963 L11.4932614,7.07920305 C11.3823105,7.85791121 10.0823565,8.70750095 8.38709585,9.35807746 L8.17345159,9.43681124 C8.0627246,9.47761717 7.94113319,9.47794465 7.83018801,9.43773576 L7.75865523,9.41181076 L7.75865523,9.41181076 C6.04191956,8.76926764 4.72922295,7.93624234 4.52723724,7.15083415 L4.50664468,7.04405054 L4.5,6.9649352 L4.50176179,3.41295165 C4.50187024,3.19430218 4.64302559,3.00505613 4.84404286,2.93834717 L4.93362145,2.91753141 L7.93284874,2.504668 L8.00098902,2.5 Z M8.009,3.503 L5.5,3.845 L5.49649162,6.88124264 L5.499,6.91 L5.51620415,6.95460591 C5.67537833,7.27080016 6.56144577,7.86505473 7.86506685,8.38141047 L8.002,8.434 L8.02881097,8.42446515 C9.43004486,7.88672492 10.3719916,7.24077592 10.4867293,7.01490711 L10.4979179,6.9828116 L10.5,7.00961963 L10.504,3.849 L8.009,3.503 Z" id="路径"></path>
            </g>
            <rect id="矩形" x="14" y="0" width="2" height="2" rx="0.25"></rect>
        </g>
    </g>
</svg>