<?xml version="1.0" encoding="UTF-8"?>
<svg width="20px" height="20px" viewBox="0 0 20 20" version="1.1" xmlns="http://www.w3.org/2000/svg" xmlns:xlink="http://www.w3.org/1999/xlink">
    <!-- Generator: Sketch 60 (88103) - https://sketch.com -->
    <title>图标/计算/容器镜像服务/灰色</title>
    <desc>Created with Sketch.</desc>
    <g id="图标/计算/容器镜像服务/灰色" stroke="none" stroke-width="1" fill="none" fill-rule="evenodd">
        <g id="编组" transform="translate(1.000000, 2.000000)" fill="#101724" fill-rule="nonzero">
            <path d="M13.2478328,0.500791691 C13.4280141,0.500791691 13.5945086,0.598602264 13.6845992,0.757379114 L17.932432,8.24380842 C18.0225227,8.40258527 18.0225227,8.59820642 17.932432,8.75698327 L13.6845992,16.2434126 C13.5945086,16.4021894 13.4280141,16.5 13.2478328,16.5 L4.75216724,16.5 C4.57198589,16.5 4.40549144,16.4021894 4.31540076,16.2434126 L0.0675680096,8.75698327 C-0.0225226699,8.59820642 -0.0225226699,8.40258527 0.0675680096,8.24380842 L4.31540076,0.757379114 C4.40549144,0.598602264 4.57198589,0.500791691 4.75216724,0.500791691 L5.73200673,0.500160934 C5.87007778,0.499911171 5.98207863,0.611767907 5.98216751,0.749839066 C5.98216754,0.749892711 5.98216756,0.749946355 5.98200668,0.75 L5.98200668,1.27634969 C5.98198418,1.41441209 5.87006908,1.52633727 5.73200668,1.52637219 L5.04284774,1.5264342 L5.04284774,1.5264342 L1.08634366,8.49942249 L5.04349593,15.4733841 L12.9567831,15.4729555 L16.9132871,8.49996718 L12.9570084,1.52651871 L12.2666826,1.52639463 C12.128629,1.52632487 12.0167275,1.41440333 12.0166826,1.27634969 L12.0166826,0.75 C12.0165219,0.611928813 12.1284507,0.5 12.2665219,0.5 C12.2665755,0.5 12.2666291,0.500000017 12.2666825,0.500160762 L13.2478328,0.500791691 L13.2478328,0.500791691 Z" id="路径"></path>
            <rect id="矩形" x="8" y="0" width="2" height="2" rx="0.25"></rect>
            <path d="M9.25,2.64433757 L13.9461524,5.35566243 C14.100853,5.44497883 14.1961524,5.61004234 14.1961524,5.78867513 L14.1961524,11.2113249 C14.1961524,11.3899577 14.100853,11.5550212 13.9461524,11.6443376 L9.25,14.3556624 C9.09529946,14.4449788 8.90470054,14.4449788 8.75,14.3556624 L4.05384758,11.6443376 C3.89914704,11.5550212 3.80384758,11.3899577 3.80384758,11.2113249 L3.80384758,5.78867513 C3.80384758,5.61004234 3.89914704,5.44497883 4.05384758,5.35566243 L8.75,2.64433757 C8.90470054,2.55502117 9.09529946,2.55502117 9.25,2.64433757 Z M9,3.654 L4.803,6.077 L4.803,10.922 L9,13.345 L13.196,10.922 L13.196,6.077 L9,3.654 Z" id="多边形" transform="translate(9.000000, 8.500000) rotate(30.000000) translate(-9.000000, -8.500000) "></path>
            <rect id="矩形" transform="translate(9.000000, 8.500000) rotate(30.000000) translate(-9.000000, -8.500000) " x="8.5" y="3.5" width="1" height="10"></rect>
            <rect id="矩形" transform="translate(9.000000, 8.500000) scale(-1, 1) rotate(30.000000) translate(-9.000000, -8.500000) " x="8.5" y="3.5" width="1" height="10"></rect>
            <rect id="矩形" transform="translate(9.000000, 8.500000) rotate(90.000000) translate(-9.000000, -8.500000) " x="8.5" y="3" width="1" height="11"></rect>
        </g>
    </g>
</svg>