<?xml version="1.0" encoding="UTF-8"?>
<svg width="20px" height="20px" viewBox="0 0 20 20" version="1.1" xmlns="http://www.w3.org/2000/svg" xmlns:xlink="http://www.w3.org/1999/xlink">
    <!-- Generator: Sketch 60 (88103) - https://sketch.com -->
    <title>图标/计算/云弹性缓存Redis/灰色</title>
    <desc>Created with Sketch.</desc>
    <g id="图标/计算/云弹性缓存Redis/灰色" stroke="none" stroke-width="1" fill="none" fill-rule="evenodd">
        <path d="M17.5,2 C17.7761424,2 18,2.22385763 18,2.5 L18,17.5 C18,17.7761424 17.7761424,18 17.5,18 L2.5,18 C2.22385763,18 2,17.7761424 2,17.5 L2,2.5 C2,2.22385763 2.22385763,2 2.5,2 L17.5,2 Z M17,3.00025 L2.99975,3.00025 L2.99975,16.99975 L17,16.99975 L17,3.00025 Z M4.75,12.99975 C4.88807119,12.99975 5,13.1116788 5,13.24975 L5,15 L6.74975,15 C6.88782119,15 6.99975,15.1119288 6.99975,15.25 L6.99975,15.74975 C6.99975,15.8878212 6.88782119,15.99975 6.74975,15.99975 L4.5,15.99975 C4.22385763,15.99975 4,15.7758924 4,15.49975 L4,13.24975 C4,13.1116788 4.11192881,12.99975 4.25,12.99975 L4.75,12.99975 Z M10,7 C10.897875,7 11.66675,7.52961397 12.02775,8.29047312 C13.14675,8.48246912 14,9.45132393 14,10.6250495 C13.999875,11.893648 13.00225,12.9210016 11.75,12.9873753 L11.75,13 L8.25,13 C7.007375,13 6,11.992771 6,10.7499219 C6,9.6351951 6.812375,8.71683923 7.876,8.53784296 C8.17525,7.64636153 9.00775,7 10,7 Z M10,8 C9.50853695,8 9.07372729,8.29097195 8.87286242,8.73213475 L8.82401458,8.85606985 L8.68091436,9.2823729 C8.65155104,9.36984778 8.57639168,9.43403653 8.48539954,9.4493495 L8.04195528,9.52397624 C7.44283623,9.62480132 7,10.1404548 7,10.7499219 C7,11.397263 7.49182942,11.929541 8.12218628,11.9935471 L8.25,12 L11.47,12 L11.6970708,11.988777 C12.3819421,11.9524764 12.9277693,11.4251822 12.9933815,10.7598515 L13,10.6250495 C13,10.0003804 12.5774793,9.46474603 11.9875303,9.30454808 L11.8586429,9.2760708 L11.4748121,9.2102138 C11.3946008,9.19645128 11.3261085,9.14450682 11.2912225,9.07097972 L11.1242848,8.71913451 C10.9355547,8.32135883 10.5608279,8.05248562 10.1306022,8.00688698 L10,8 Z M15.5,3.99975 C15.7761424,3.99975 16,4.22360763 16,4.49975 L16,6.74975 C16,6.88782119 15.8880712,6.99975 15.75,6.99975 L15.25,6.99975 C15.1119288,6.99975 15,6.88782119 15,6.74975 L15,5 L13.24975,5 C13.1116788,5 12.99975,4.88807119 12.99975,4.75 L12.99975,4.24975 C12.99975,4.11167881 13.1116788,3.99975 13.24975,3.99975 L15.5,3.99975 Z M5.75,4 C5.88807119,4 6,4.11192881 6,4.25 L6,5.75 C6,5.88807119 5.88807119,6 5.75,6 L4.25,6 C4.11192881,6 4,5.88807119 4,5.75 L4,4.25 C4,4.11192881 4.11192881,4 4.25,4 L5.75,4 Z" id="形状结合" fill="#101724" fill-rule="nonzero"></path>
    </g>
</svg>