<?xml version="1.0" encoding="UTF-8"?>
<svg width="20px" height="20px" viewBox="0 0 20 20" version="1.1" xmlns="http://www.w3.org/2000/svg" xmlns:xlink="http://www.w3.org/1999/xlink">
    <!-- Generator: Sketch 60 (88103) - https://sketch.com -->
    <title>图标/计算/GPU云服务器/灰色</title>
    <desc>Created with Sketch.</desc>
    <g id="图标/计算/GPU云服务器/灰色" stroke="none" stroke-width="1" fill="none" fill-rule="evenodd">
        <path d="M5.74975,1 C5.88782119,1 5.99975,1.11192881 5.99975,1.25 L5.99975,2.99996875 L8,2.99996875 L8,1.25 C8,1.11192881 8.11192881,1 8.25,1 L8.74975,1 C8.88782119,1 8.99975,1.11192881 8.99975,1.25 L8.99975,2.99996875 L11,2.99996875 L11,1.25 C11,1.11192881 11.1119288,1 11.25,1 L11.74975,1 C11.8878212,1 11.99975,1.11192881 11.99975,1.25 L11.99975,2.99996875 L13.99975,2.99996875 L13.99975,1.25 C13.99975,1.11192881 14.1116788,1 14.24975,1 L14.75,1 C14.8880712,1 15,1.11192881 15,1.25 L15,2.99996875 L16.49975,2.99996875 C16.7758924,2.99996875 16.99975,3.22382638 16.99975,3.49996875 L16.99975,4.99945313 L18.75,4.99945313 C18.8880712,4.99945313 19,5.11138195 19,5.24945313 L19,5.7496875 C19,5.88775869 18.8880712,5.9996875 18.75,5.9996875 L16.99975,5.9996875 L16.99975,8.00015625 L18.75,8.00015625 C18.8880712,8.00015625 19,8.11208506 19,8.25015625 L19,8.74989063 C19,8.88796181 18.8880712,8.99989063 18.75,8.99989063 L16.99975,8.99989063 L16.99975,10.9998594 L18.75,10.9998594 C18.8880712,10.9998594 19,11.1117882 19,11.2498594 L19,11.7493438 C19,11.8874149 18.8880712,11.9993438 18.75,11.9993438 L16.99975,11.9993438 L16.99975,13.9995625 L18.75,13.9995625 C18.8880712,13.9995625 19,14.1114913 19,14.2495625 L19,14.7497969 C19,14.8878681 18.8880712,14.9997969 18.75,14.9997969 L16.99975,14.9997969 L16.99975,16.4995313 C16.99975,16.7756736 16.7758924,16.9995313 16.49975,16.9995313 L15,16.9995313 L15,18.75 C15,18.8880712 14.8880712,19 14.75,19 L14.24975,19 C14.1116788,19 13.99975,18.8880712 13.99975,18.75 L13.99975,16.9995313 L11.99975,16.9995313 L11.99975,18.75 C11.99975,18.8880712 11.8878212,19 11.74975,19 L11.25,19 C11.1119288,19 11,18.8880712 11,18.75 L11,16.9995313 L8.99975,16.9995313 L8.99975,18.75 C8.99975,18.8880712 8.88782119,19 8.74975,19 L8.25,19 C8.11192881,19 8,18.8880712 8,18.75 L8,16.9995313 L5.99975,16.9995313 L5.99975,18.75 C5.99975,18.8880712 5.88782119,19 5.74975,19 L5.24975,19 C5.11167881,19 4.99975,18.8880712 4.99975,18.75 L4.99975,16.9995313 L3.49975,16.9995313 C3.22360763,16.9995313 2.99975,16.7756736 2.99975,16.4995313 L2.99975,14.9997969 L1.25,14.9997969 C1.11192881,14.9997969 1,14.8878681 1,14.7497969 L1,14.2495625 C1,14.1114913 1.11192881,13.9995625 1.25,13.9995625 L2.99975,13.9995625 L2.99975,11.9993438 L1.25,11.9993438 C1.11192881,11.9993438 1,11.8874149 1,11.7493438 L1,11.2498594 C1,11.1117882 1.11192881,10.9998594 1.25,10.9998594 L2.99975,10.9998594 L2.99975,8.99989063 L1.25,8.99989063 C1.11192881,8.99989063 1,8.88796181 1,8.74989063 L1,8.25015625 C1,8.11208506 1.11192881,8.00015625 1.25,8.00015625 L2.99975,8.00015625 L2.99975,5.9996875 L1.25,5.9996875 C1.11192881,5.9996875 1,5.88775869 1,5.7496875 L1,5.24945313 C1,5.11138195 1.11192881,4.99945313 1.25,4.99945313 L2.99975,4.99945313 L2.99975,3.49996875 C2.99975,3.22382638 3.22360763,2.99996875 3.49975,2.99996875 L4.99975,2.99996875 L4.99975,1.25 C4.99975,1.11192881 5.11167881,1 5.24975,1 L5.74975,1 Z M16,3.99945313 L3.99975,3.99945313 L3.99975,15.9997969 L16,15.9997969 L16,3.99945313 Z M13.5,6 C13.7761424,6 14,6.22385763 14,6.5 L14,13.5 C14,13.7761424 13.7761424,14 13.5,14 L6.5,14 C6.22385763,14 6,13.7761424 6,13.5 L6,10.25 C6,10.1119288 6.11192881,10 6.25,10 L6.75,10 C6.88807119,10 7,10.1119288 7,10.25 L7,13 L13,13 L13,7 L10.25,7 C10.1119288,7 10,6.88807119 10,6.75 L10,6.25 C10,6.11192881 10.1119288,6 10.25,6 L13.5,6 Z M7.75,6 C7.88807119,6 8,6.11192881 8,6.25 L8,7.75 C8,7.88807119 7.88807119,8 7.75,8 L6.25,8 C6.11192881,8 6,7.88807119 6,7.75 L6,6.25 C6,6.11192881 6.11192881,6 6.25,6 L7.75,6 Z" id="形状结合" fill="#101724" fill-rule="nonzero"></path>
    </g>
</svg>