<?xml version="1.0" encoding="UTF-8"?>
<svg width="20px" height="20px" viewBox="0 0 20 20" version="1.1" xmlns="http://www.w3.org/2000/svg" xmlns:xlink="http://www.w3.org/1999/xlink">
    <!-- Generator: Sketch 60 (88103) - https://sketch.com -->
    <title>图标/域名与网站/SSL证书管理/灰色</title>
    <desc>Created with Sketch.</desc>
    <g id="图标/域名与网站/SSL证书管理/灰色" stroke="none" stroke-width="1" fill="none" fill-rule="evenodd">
        <g id="SSL证书管理" transform="translate(2.000000, 2.000000)" fill="#101724">
            <path d="M12,0.25 L12,0.75 C12,0.888071187 11.8880712,1 11.75,1 L1,1 L1,1 L1,15 L15,15 L15,4.25 C15,4.11192881 15.1119288,4 15.25,4 L15.75,4 C15.8880712,4 16,4.11192881 16,4.25 L16,15.03125 L16,15.03125 C16,15.5407984 15.6065994,15.9584632 15.1069572,15.9970854 L15.03125,16 L0.96875,16 C0.45920157,16 0.0415367708,15.6065994 0.00291460954,15.1069572 L0,15.03125 L0,0.96875 C0,0.45920157 0.393400588,0.0415367708 0.893042758,0.00291460954 L0.96875,0 L11.75,0 C11.8880712,-2.53632657e-17 12,0.111928813 12,0.25 Z" id="路径" fill-rule="nonzero"></path>
            <path d="M10.862146,7.38042344 L11.9421977,8.51498516 L11.9421977,8.51498516 L13.3549844,9.19157652 C13.6040393,9.31085032 13.7092477,9.60943977 13.5899739,9.85849473 C13.5864307,9.8658934 13.5827059,9.87320375 13.5788029,9.88041913 L12.8335249,11.2582082 L12.8335249,11.2582082 L12.6266234,12.8109264 C12.5901495,13.0846494 12.3386852,13.2769777 12.0649622,13.2405038 C12.0568307,13.2394203 12.0487272,13.2381368 12.0406588,13.2366545 L10.5,12.9536133 L10.5,12.9536133 L8.95934116,13.2366545 C8.68774409,13.2865508 8.42712222,13.1068268 8.37722592,12.8352298 C8.37574365,12.8271614 8.37446017,12.8190579 8.37337664,12.8109264 L8.1664751,11.2582082 L8.1664751,11.2582082 L7.42119711,9.88041913 C7.2898148,9.63753377 7.38020588,9.33412987 7.62309125,9.20274756 C7.63030663,9.19884459 7.63761698,9.19511978 7.64501565,9.19157652 L9.0578023,8.51498516 L9.0578023,8.51498516 L10.137854,7.38042344 C10.3282523,7.18041573 10.644739,7.17262579 10.8447467,7.36302413 C10.8506883,7.36868029 10.8564898,7.37448181 10.862146,7.38042344 Z M11.3445756,9.33754142 L10.5,8.45 L9.65542441,9.33754142 L8.55,9.866 L9.13344798,10.9440197 L9.294,12.158 L10.5,11.9368778 L11.705,12.158 L11.866552,10.9440197 L12.449,9.866 L11.3445756,9.33754142 Z" id="星形" fill-rule="nonzero"></path>
            <rect id="矩形" x="3" y="3" width="7" height="1" rx="0.25"></rect>
            <rect id="矩形备份-8" x="3" y="5.5" width="4" height="1" rx="0.25"></rect>
            <rect id="矩形" x="14" y="0" width="2" height="2" rx="0.5"></rect>
        </g>
    </g>
</svg>