<?xml version="1.0" encoding="UTF-8"?>
<svg width="20px" height="20px" viewBox="0 0 20 20" version="1.1" xmlns="http://www.w3.org/2000/svg" xmlns:xlink="http://www.w3.org/1999/xlink">
    <!-- Generator: Sketch 60 (88103) - https://sketch.com -->
    <title>图标/管理与监控/团队管理/灰色</title>
    <desc>Created with Sketch.</desc>
    <defs>
        <polygon id="path-1" points="0 0.437694825 8 0.437694825 8 7.50005517 0 7.50005517"></polygon>
    </defs>
    <g id="图标/管理与监控/团队管理/灰色" stroke="none" stroke-width="1" fill="none" fill-rule="evenodd">
        <g id="编组-2" transform="translate(2.000000, 2.000000)">
            <g id="编组" transform="translate(8.500000, 8.000000)">
                <g transform="translate(0.000000, 0.500000)">
                    <mask id="mask-2" fill="white">
                        <use xlink:href="#path-1"></use>
                    </mask>
                    <g id="Clip-10"></g>
                    <path d="M5.75021485,0.5 L2.24966015,0.5 C2.07165737,0.5 1.90615478,0.594159292 1.81715339,0.747787611 L0.0671260488,3.7519646 C-0.0223753496,3.90559292 -0.0223753496,4.09440708 0.0671260488,4.24753982 L1.81715339,7.25221239 C1.90615478,7.40534513 2.07165737,7.5 2.24966015,7.5 L5.75021485,7.5 C5.92821763,7.5 6.09372021,7.40534513 6.18322161,7.25221239 L7.93324896,4.24753982 C8.02225035,4.09440708 8.02225035,3.90559292 7.93324896,3.7519646 L6.18322161,0.747787611 C6.09372021,0.594159292 5.92821763,0.5 5.75021485,0.5 M5.50038491,1.5 L7,3.99975309 L5.50038491,6.5 L2.5001283,6.5 L1,3.99975309 L2.5001283,1.5 L5.50038491,1.5" id="Fill-9" fill="#101724" mask="url(#mask-2)"></path>
                </g>
            </g>
            <path d="M9.5,0 C11.709139,0 13.5,1.790861 13.5,4 C13.5,4.15585845 13.4910859,4.3096349 13.4737398,4.46084734 C13.4696267,4.49669499 13.4650525,4.5323093 13.4600131,4.56777385 C13.4543538,4.60763396 13.4480303,4.64774624 13.4411154,4.68765578 C13.432503,4.73732645 13.4230761,4.78620494 13.4127684,4.83475787 C13.3988243,4.90043495 13.3832822,4.9654647 13.3661742,5.02985643 C13.3615358,5.04731954 13.3567022,5.06502154 13.3517505,5.08267416 C13.3338659,5.14642312 13.3144846,5.20939897 13.293612,5.27169104 C13.2889601,5.28557129 13.2843156,5.29918307 13.2796,5.31276159 C13.2539958,5.38650705 13.2261776,5.45955248 13.1963179,5.53153716 C13.190593,5.54533475 13.1849464,5.55873512 13.1792291,5.57209805 C13.1559688,5.6264765 13.1313989,5.6805242 13.1056782,5.73391307 C13.0901584,5.76612876 13.0741931,5.798156 13.0578146,5.82993548 C13.043845,5.85703792 13.0296548,5.88381345 13.0151716,5.91040641 C12.9986135,5.94081264 12.9815765,5.97114582 12.9641588,6.00123109 C12.2717399,7.19654358 10.9796986,8 9.5,8 L9.5,8 C6.26160306,8 3.62242824,10.5655749 3.50413847,13.7750617 L3.5,14 L3.5,15 L9.25,15 C9.38807119,15 9.5,15.1119288 9.5,15.25 L9.5,15.75 C9.5,15.8880712 9.38807119,16 9.25,16 L3,16 C2.72385763,16 2.5,15.7761424 2.5,15.5 L2.5,14 C2.5,10.8984153 4.51718183,8.26796859 7.31119522,7.34901023 C7.25566851,7.31219528 7.20052196,7.27407453 7.14640306,7.23462861 L7.31220162,7.34867931 C7.22784169,7.2935236 7.14569282,7.23525804 7.06591745,7.17404522 C7.04525459,7.15853735 7.02496865,7.14264401 7.00484142,7.12656037 C6.97458371,7.10207733 6.94448266,7.07731746 6.91475438,7.05213002 C6.88693159,7.02881917 6.85924496,7.00468986 6.83189752,6.98018964 C6.81006422,6.96040607 6.78871054,6.94086285 6.76757158,6.9210923 C6.73449406,6.89034387 6.70176329,6.85866127 6.66957948,6.82643233 C6.65651582,6.81320292 6.64326568,6.79975428 6.63011057,6.7862126 C6.59312357,6.74826008 6.55698849,6.70954616 6.52162463,6.67012621 C6.51108081,6.65827903 6.50057528,6.64643247 6.4901393,6.63452328 C6.46095692,6.60129685 6.43238434,6.56757469 6.40436718,6.53337991 C6.36944579,6.4907001 6.33563948,6.4476791 6.30270907,6.40395948 C6.28057306,6.37460182 6.25866491,6.34466082 6.23716696,6.31440796 C6.22339584,6.29501512 6.20978108,6.27549338 6.19633703,6.25584534 C6.17231934,6.22074523 6.14891867,6.18534725 6.12607172,6.14956151 C6.10599509,6.11812529 6.08627214,6.08626169 6.06698816,6.05410414 C6.05567732,6.03522784 6.04450384,6.0162402 6.03348347,5.99715305 C6.01026429,5.95695837 5.98771798,5.91629101 5.96586734,5.8751966 C5.94320445,5.83254715 5.92130835,5.78950098 5.90017703,5.74601446 C5.89563165,5.7366868 5.89132501,5.72773665 5.88705078,5.71876804 C5.86677576,5.67619512 5.84722296,5.6332209 5.8284162,5.58984807 C5.8108669,5.54941065 5.79391312,5.50845809 5.77762634,5.46716898 C5.73467177,5.35820676 5.69649123,5.24737813 5.66315889,5.13447003 C5.65536837,5.10811496 5.64773947,5.08124334 5.64038598,5.05425802 C5.63025496,5.01704405 5.62073643,4.98000693 5.61173899,4.94276648 C5.6037986,4.90993216 5.5961933,4.8765916 5.58900735,4.84309524 C5.58104803,4.80596743 5.57364716,4.76890129 5.56676234,4.73165421 C5.56143017,4.702823 5.5563938,4.67378564 5.55167228,4.64464266 C5.54425324,4.59883026 5.5376291,4.55290335 5.53179203,4.50673113 C5.52881496,4.48319365 5.52603098,4.45947852 5.52345535,4.43570085 C5.51758732,4.38154305 5.51278993,4.32691603 5.50910148,4.2719852 C5.50793995,4.25465055 5.50692193,4.23789151 5.50600742,4.22110491 C5.50382779,4.18121969 5.50221546,4.14049634 5.50121631,4.09962092 C5.50040532,4.06637489 5.5,4.03323478 5.5,4 C5.5,1.790861 7.290861,0 9.5,0 L9.5,0 Z M9.5,1 C7.84314575,1 6.5,2.34314575 6.5,4 C6.5,5.65685425 7.84314575,7 9.5,7 C10.4797483,7 11.3498017,6.53033998 11.8973018,5.80387822 C11.9258344,5.766035 11.9538315,5.7269961 11.9808995,5.68727342 L11.8973018,5.80387822 C11.9375269,5.75050466 11.9760109,5.69574491 12.0126694,5.63968337 L11.9808995,5.68727342 C12.0192278,5.63102607 12.0556933,5.57340773 12.0902072,5.51450716 L12.0126694,5.63968337 C12.0496234,5.5831699 12.0847224,5.52533357 12.1178797,5.46626086 L12.2099052,5.28864825 C12.3299185,5.03672182 12.4158362,4.76542319 12.4616906,4.48072011 C12.4661479,4.45305405 12.4702452,4.42512223 12.4739549,4.39706811 L12.4616906,4.48072011 C12.4727822,4.41185443 12.4815296,4.34220446 12.4878486,4.27185468 L12.4739549,4.39706811 C12.4825784,4.33185367 12.4891071,4.26597836 12.4934712,4.19951202 L12.4878486,4.27185468 C12.4958915,4.18231215 12.5,4.09163587 12.5,4 C12.5,2.40231912 11.25108,1.09633912 9.67627279,1.00509269 L9.5,1 L9.5,1 Z" id="形状结合" fill="#101724" fill-rule="nonzero"></path>
            <path d="M2.43892562,7.83941544 L2.55383657,7.71931035 L2.75711069,7.51721415 L2.98485728,7.30526476 L3.17390846,7.13997628 L3.40336309,6.95131432 C3.48970979,6.88265892 3.5775919,6.81537612 3.66672884,6.74969772 C3.28400229,6.01116418 3.05085064,5.18096588 3.00740363,4.30069285 C3.00248726,4.201083 3,4.10083197 3,4 C3,2.96463997 3.26224507,1.99053055 3.72393498,1.14047197 C3.76433441,1.06608898 3.82223145,0.967896123 3.89762611,0.845893397 C3.95941697,0.746157823 4.08222766,0.702706709 4.1929482,0.741517008 L4.67710582,0.911226281 C4.80740394,0.95689924 4.87600642,1.09955188 4.83033366,1.22985007 C4.82349894,1.24934861 4.81427337,1.26792466 4.80286801,1.28515325 C4.75818565,1.35264905 4.72179205,1.41014814 4.69368719,1.45765051 C4.29948785,2.12391996 4.0555099,2.88958685 4.00838332,3.70802121 L4,4 C4,4.7063639 4.14647475,5.3785168 4.41070753,5.98774195 L4.50827596,6.1990165 L4.68058979,6.52008131 L4.79691732,6.70926316 L4.94764264,6.92950985 L5.03713076,7.04928475 L4.72184658,7.23880142 L4.42083373,7.43933459 C2.41614305,8.84116112 1.08373449,11.1383894 1.00380682,13.7508207 L1,14 L1,15.75 C1,15.8880712 0.888071187,16 0.75,16 L0.25,16 C0.111928813,16 3.55271368e-15,15.8880712 3.55271368e-15,15.75 L3.55271368e-15,14 C3.55271368e-15,11.7512571 0.824732074,9.6951407 2.18822399,8.11762303 L2.43892562,7.83941544 Z" id="路径" fill="#101724"></path>
        </g>
        <path d="M15.25,13.5 L13.75,13.5 C13.612,13.5 13.5,13.612 13.5,13.75 L13.5,15.25 C13.5,15.388 13.612,15.5 13.75,15.5 L15.25,15.5 C15.388,15.5 15.5,15.388 15.5,15.25 L15.5,13.75 C15.5,13.612 15.388,13.5 15.25,13.5" id="Fill-7" fill="#101724"></path>
    </g>
</svg>