<?xml version="1.0" encoding="UTF-8"?>
<svg width="20px" height="20px" viewBox="0 0 20 20" version="1.1" xmlns="http://www.w3.org/2000/svg" xmlns:xlink="http://www.w3.org/1999/xlink">
    <!-- Generator: Sketch 60 (88103) - https://sketch.com -->
    <title>图标/计算/文件存储/灰色</title>
    <desc>Created with Sketch.</desc>
    <g id="图标/计算/文件存储/灰色" stroke="none" stroke-width="1" fill="none" fill-rule="evenodd">
        <path d="M8.5,2 C8.77614237,2 9,2.22385763 9,2.5 L9,3.99978125 L17.5,3.99978125 C17.7761424,3.99978125 18,4.22363887 18,4.49978125 L18,17.5 C18,17.7761424 17.7761424,18 17.5,18 L2.5,18 C2.22385763,18 2,17.7761424 2,17.5 L2,2.5 C2,2.22385763 2.22385763,2 2.5,2 L8.5,2 Z M17,6.99982812 L3,6.99982812 L2.99975,17.0002344 L17,17.0002344 L17,6.99982812 Z M15.75,14 C15.8880712,14 16,14.1119288 16,14.25 L16,15.75 C16,15.8880712 15.8880712,16 15.75,16 L14.25,16 C14.1119288,16 14,15.8880712 14,15.75 L14,14.25 C14,14.1119288 14.1119288,14 14.25,14 L15.75,14 Z M7.99975,2.99976562 L3,2.99976562 L2.99975,5.9998125 L17.0000625,6.0000625 L17.0000625,5.00004688 L8.49975,4.99981076 C8.22361305,4.9997892 7.99976389,4.77593382 7.99975,4.49979687 L7.99975,2.99976562 Z" id="形状结合" fill="#101724" fill-rule="nonzero"></path>
    </g>
</svg>