<?xml version="1.0" encoding="UTF-8"?>
<svg width="20px" height="20px" viewBox="0 0 20 20" version="1.1" xmlns="http://www.w3.org/2000/svg" xmlns:xlink="http://www.w3.org/1999/xlink">
    <!-- Generator: Sketch 60 (88103) - https://sketch.com -->
    <title>图标/计算/专有网络(VPC)/灰色</title>
    <desc>Created with Sketch.</desc>
    <g id="图标/计算/专有网络(VPC)/灰色" stroke="none" stroke-width="1" fill="none" fill-rule="evenodd">
        <path d="M10,1 C14.8028299,1 18.7269796,4.76207703 18.9863532,9.50013517 L19,9.5 L19,10.5 L18.9862985,10.5008636 C18.7264281,15.2384517 14.8024924,19 10,19 C5.19750761,19 1.27357191,15.2384517 1.01370152,10.5008636 L1,10.5 L1,9.5 L1.01364679,9.50013517 C1.27302041,4.76207703 5.19717012,1 10,1 Z M12.1069464,15.5012139 L7.89305359,15.5012139 C8.47130661,17.0467478 9.25318896,18 10,18 C10.746811,18 11.5286934,17.0467478 12.1069464,15.5012139 Z M6.83379864,15.5006456 L4.19152661,15.5010845 C5.19913829,16.5646398 6.49573228,17.3516485 7.95559813,17.7363999 C7.52138781,17.1548879 7.14103101,16.3946084 6.83379864,15.5006456 Z M13.1662014,15.5006456 C12.858969,16.3946084 12.4786122,17.1548879 12.0453017,17.7361001 C13.5042677,17.3516485 14.8008617,16.5646398 15.8084734,15.5010845 L13.1662014,15.5006456 Z M12.4290741,5.49981604 L7.57092591,5.49981604 C7.22010293,6.77493366 7,8.32005084 7,10 C7,11.6803899 7.22021843,13.225877 7.57120203,14.5011874 L12.428798,14.5011874 C12.7797816,13.225877 13,11.6803899 13,10 C13,8.32005084 12.7798971,6.77493366 12.4290741,5.49981604 Z M6.00608298,10.5005936 L2.01540073,10.500482 C2.10663051,11.9784413 2.5991484,13.3478074 3.38533449,14.5009604 L6.53536014,14.5008998 C6.22975845,13.3125548 6.04145742,11.9524 6.00608298,10.5005936 Z M17.9845993,10.500482 L13.993917,10.5005936 C13.9585426,11.9524 13.7702416,13.3125548 13.4646399,14.5008998 L16.6146655,14.5009604 C17.4008516,13.3478074 17.8933695,11.9784413 17.9845993,10.500482 Z M10.75,9 C10.8880712,9 11,9.11192881 11,9.25 L11,10.75 C11,10.8880712 10.8880712,11 10.75,11 L9.25,11 C9.11192881,11 9,10.8880712 9,10.75 L9,9.25 C9,9.11192881 9.11192881,9 9.25,9 L10.75,9 Z M16.6153513,5.50004561 L13.4648948,5.50009177 C13.7704163,6.68847412 13.9586387,8.04862727 13.9939413,9.50040466 L17.9846613,9.50052313 C17.8936193,8.02260942 17.4013162,6.65325051 16.6153513,5.50004561 Z M6.53510519,5.50009177 L3.38464872,5.50004561 C2.5986838,6.65325051 2.10638074,8.02260942 2.01533875,9.50052313 L6.00605868,9.50040466 C6.04136129,8.04862727 6.22958369,6.68847412 6.53510519,5.50009177 Z M7.95469833,2.26389991 L7.83498977,2.29640422 C6.42386421,2.69217121 5.17049915,3.46523647 4.19058339,4.49991122 L6.83345025,4.50036828 C7.14074346,3.60596648 7.521224,2.84533185 7.95469833,2.26389991 Z M12.0444019,2.2636001 L12.1288349,2.37908877 C12.5277431,2.94439832 12.8791545,3.66388101 13.1665498,4.50036828 L15.8094166,4.49991122 C14.8016709,3.43585138 13.5047233,2.64847161 12.0444019,2.2636001 Z M10,2 C9.25302587,2 8.4709651,2.95366862 7.89267477,4.49979875 L12.1073252,4.49979875 C11.5542878,3.02118522 10.8148878,2.0844196 10.0980377,2.00542559 L10,2 Z" id="形状结合" fill="#101724" fill-rule="nonzero"></path>
    </g>
</svg>