<?xml version="1.0" encoding="UTF-8"?>
<svg width="20px" height="20px" viewBox="0 0 20 20" version="1.1" xmlns="http://www.w3.org/2000/svg" xmlns:xlink="http://www.w3.org/1999/xlink">
    <!-- Generator: Sketch 60 (88103) - https://sketch.com -->
    <title>图标/管理与监控/身份与访问控制/灰色</title>
    <desc>Created with Sketch.</desc>
    <g id="图标/管理与监控/身份与访问控制/灰色" stroke="none" stroke-width="1" fill="none" fill-rule="evenodd">
        <g id="身份与访问控制" transform="translate(2.000000, 2.000000)" fill="#101724" fill-rule="nonzero">
            <g id="编组" transform="translate(2.000000, 3.000000)">
                <path d="M3,0 C4.1045695,0 5,0.8954305 5,2 C5,2.53259545 4.79181919,3.01656767 4.45239219,3.37498203 C5.29704586,3.84217422 5.89258721,4.7071729 5.98689414,5.71772235 C5.98722939,5.72131467 5.98755988,5.72501505 5.98788562,5.7288235 C5.99951794,5.86633262 5.89758735,5.9873306 5.76008918,5.999091 C5.75300731,5.99969673 5.74590282,6 5.73879509,6 L5.2358941,6 C5.10745008,5.99990563 4.99992221,5.90253838 4.98721454,5.77472453 C4.98607423,5.76325524 4.98488179,5.75267022 4.98363723,5.74296947 C4.85750063,4.75979761 4.01748044,4 3,4 C1.98222717,4 1.14201659,4.76023436 1.01625421,5.74381714 C1.01504515,5.75327316 1.01388561,5.76357194 1.0127756,5.7747135 C1.00010598,5.90259695 0.892516657,6 0.764007156,6 L0.261371527,6 C0.123324407,5.99995642 0.011415105,5.88804712 0.011415105,5.75 L0.0121910296,5.73032025 L0.0121910296,5.73032025 C0.0133004108,5.71627352 0.0144617354,5.70331281 0.0156750034,5.69143811 C0.117760936,4.69228595 0.710175693,3.83828109 1.54839483,3.37394796 C1.20818081,3.01656767 1,2.53259545 1,2 C1,0.8954305 1.8954305,0 3,0 Z M3,1 C2.44771525,1 2,1.44771525 2,2 C2,2.55228475 2.44771525,3 3,3 C3.55228475,3 4,2.55228475 4,2 C4,1.44771525 3.55228475,1 3,1 Z" id="形状结合"></path>
            </g>
            <path d="M15.5,0 C15.7761424,0 16,0.223857625 16,0.5 L16,15.5 C16,15.7761424 15.7761424,16 15.5,16 L0.5,16 C0.223857625,16 0,15.7761424 0,15.5 L0,0.5 C0,0.223857625 0.223857625,0 0.5,0 L15.5,0 Z M15,1 L1,1 L1,11 L4.75,11 C4.88807119,11 5,11.1119288 5,11.25 L5,11.75 C5,11.8880712 4.88807119,12 4.75,12 L1,12 L1,15 L15,15 L15,12 L11.25,12 C11.1119288,12 11,11.8880712 11,11.75 L11,11.25 C11,11.1119288 11.1119288,11 11.25,11 L15,11 L15,1 Z" id="形状结合"></path>
            <rect id="矩形" x="7" y="10.5" width="2" height="2" rx="0.25"></rect>
            <path d="M13,6.25 L13,6.75 C13,6.88807119 12.8880712,7 12.75,7 L9.25,7 C9.11192881,7 9,6.88807119 9,6.75 L9,6.25 C9,6.11192881 9.11192881,6 9.25,6 L12.75,6 C12.8880712,6 13,6.11192881 13,6.25 Z" id="路径"></path>
            <path d="M14,4.25 L14,4.75 C14,4.88807119 13.8880712,5 13.75,5 L9.25,5 C9.11192881,5 9,4.88807119 9,4.75 L9,4.25 C9,4.11192881 9.11192881,4 9.25,4 L13.75,4 C13.8880712,4 14,4.11192881 14,4.25 Z" id="路径"></path>
        </g>
    </g>
</svg>