<?xml version="1.0" encoding="UTF-8"?>
<svg width="20px" height="20px" viewBox="0 0 20 20" version="1.1" xmlns="http://www.w3.org/2000/svg" xmlns:xlink="http://www.w3.org/1999/xlink">
    <!-- Generator: Sketch 60 (88103) - https://sketch.com -->
    <title>图标/计算/DDOS高防/灰色</title>
    <desc>Created with Sketch.</desc>
    <g id="图标/计算/DDOS高防/灰色" stroke="none" stroke-width="1" fill="none" fill-rule="evenodd">
        <path d="M13.25,2.0375332 L13.2847431,2.03995913 L13.2847431,2.03995913 L17.5677876,2.64101593 C17.8154266,2.67579593 18,2.89292364 18,3.14946012 L18,11.8292547 C17.8484074,14.927391 12.2842247,17.2021546 9.9998812,18 L9.51354723,17.8252357 L9.11007659,17.6729791 L8.67480006,17.5012846 C6.12904951,16.4740966 2.33010887,14.5316072 2.01746356,12.030133 L2,11.8292547 L2,3.14946192 C2,2.89292467 2.18457451,2.67579655 2.43221435,2.64101746 L6.71525684,2.03995926 C6.85198822,2.02077114 6.97838594,2.11605878 6.99757406,2.25279016 C6.99918939,2.26430073 7,2.27590995 7,2.28753332 L7,2.81726929 C7,2.94189089 6.90821813,3.04748129 6.78481054,3.06483388 L3,3.59702354 L2.99604279,11.7380366 L3.0093359,11.8995414 C3.21754874,13.5654518 5.9246426,15.361752 9.51519543,16.7330515 L10.002,16.9130797 L10.3052047,16.8018927 C13.9225749,15.4532503 16.7544652,13.6332009 16.9865189,11.9713013 L17,11.8292547 L17,3.59702354 L13.2151895,3.06483388 C13.0917819,3.04748129 13,2.94189089 13,2.81726929 L13,2.2875332 C13,2.14946202 13.1119288,2.0375332 13.25,2.0375332 Z M13.5,10 C13.7761424,10 14,10.2238576 14,10.5 L14,12.5 C14,12.7761424 13.7761424,13 13.5,13 L6.5,13 C6.22385763,13 6,12.7761424 6,12.5 L6,10.5 C6,10.2238576 6.22385763,10 6.5,10 L13.5,10 Z M13,11 L7,11 L7,12 L13,12 L13,11 Z M13.5,6 C13.7761424,6 14,6.22385763 14,6.5 L14,8.5 C14,8.77614237 13.7761424,9 13.5,9 L6.5,9 C6.22385763,9 6,8.77614237 6,8.5 L6,6.5 C6,6.22385763 6.22385763,6 6.5,6 L13.5,6 Z M13,7 L7,7 L7,8 L13,8 L13,7 Z M10.75,2 C10.8880712,2 11,2.11192881 11,2.25 L11,3.75 C11,3.88807119 10.8880712,4 10.75,4 L9.25,4 C9.11192881,4 9,3.88807119 9,3.75 L9,2.25 C9,2.11192881 9.11192881,2 9.25,2 L10.75,2 Z" id="形状结合" fill="#101724" fill-rule="nonzero"></path>
    </g>
</svg>