<?xml version="1.0" encoding="UTF-8"?>
<svg width="20px" height="20px" viewBox="0 0 20 20" version="1.1" xmlns="http://www.w3.org/2000/svg" xmlns:xlink="http://www.w3.org/1999/xlink">
    <!-- Generator: Sketch 60 (88103) - https://sketch.com -->
    <title>图标/计算/云盘/灰色</title>
    <desc>Created with Sketch.</desc>
    <g id="图标/计算/云盘/灰色" stroke="none" stroke-width="1" fill="none" fill-rule="evenodd">
        <path d="M17.5,2 C17.7761424,2 18,2.22385763 18,2.5 L18,17.5 C18,17.7761424 17.7761424,18 17.5,18 L2.5,18 C2.22385763,18 2,17.7761424 2,17.5 L2,2.5 C2,2.22385763 2.22385763,2 2.5,2 L17.5,2 Z M17,3 L3,3 L3,17 L17,17 L17,3 Z" id="矩形" fill="#101724" fill-rule="nonzero"></path>
        <path d="M10,4.5 C10.897875,4.5 11.66675,5.02961397 12.02775,5.79047312 C13.14675,5.98246912 14,6.95132393 14,8.12504948 C13.999875,9.39364805 13.00225,10.4210016 11.75,10.4873753 L11.75,10.5 L8.25,10.5 C7.007375,10.5 6,9.49277098 6,8.24992188 C6,7.1351951 6.812375,6.21683923 7.876,6.03784296 C8.17525,5.14636153 9.00775,4.5 10,4.5 Z M10,5.5 C9.50853695,5.5 9.07372729,5.79097195 8.87286242,6.23213475 L8.82401458,6.35606985 L8.68091436,6.7823729 C8.65155104,6.86984778 8.57639168,6.93403653 8.48539954,6.9493495 L8.04195528,7.02397624 L8.04195528,7.02397624 C7.44283623,7.12480132 7,7.64045481 7,8.24992188 C7,8.897263 7.49182942,9.42954099 8.12218628,9.49354707 L8.25,9.5 L11.47,9.5 L11.6970708,9.488777 C12.3819421,9.45247643 12.9277693,8.92518219 12.9933815,8.25985152 L13,8.12504948 C13,7.50038041 12.5774793,6.96474603 11.9875303,6.80454808 L11.8586429,6.7760708 L11.4748121,6.7102138 C11.3946008,6.69645128 11.3261085,6.64450682 11.2912225,6.57097972 L11.1242848,6.21913451 L11.1242848,6.21913451 C10.9355547,5.82135883 10.5608279,5.55248562 10.1306022,5.50688698 L10,5.5 Z" id="路径" fill="#101724" fill-rule="nonzero"></path>
        <path d="M5.25,12 L18,12 L18,12 L18,13 L5.25,13 C5.11192881,13 5,12.8880712 5,12.75 L5,12.25 C5,12.1119288 5.11192881,12 5.25,12 Z" id="矩形" fill="#101724" fill-rule="nonzero"></path>
        <rect id="矩形" fill="#101724" fill-rule="nonzero" x="14" y="14" width="2" height="2" rx="0.25"></rect>
    </g>
</svg>