<?xml version="1.0" encoding="UTF-8"?>
<svg width="20px" height="20px" viewBox="0 0 20 20" version="1.1" xmlns="http://www.w3.org/2000/svg" xmlns:xlink="http://www.w3.org/1999/xlink">
    <!-- Generator: Sketch 60 (88103) - https://sketch.com -->
    <title>图标/计算/主机安全/灰色</title>
    <desc>Created with Sketch.</desc>
    <g id="图标/计算/主机安全/灰色" stroke="none" stroke-width="1" fill="none" fill-rule="evenodd">
        <path d="M10.0679054,2.00461782 L17.5677876,3.03119077 C17.8154266,3.06508723 18,3.2766991 18,3.5267186 L18,11.9860144 C17.8484074,15.0054466 12.2842247,17.2224228 9.9998812,18 L9.51354723,17.8296754 L9.11007659,17.6812867 C6.588047,16.7336978 2.34849977,14.7631247 2.01746356,12.1817897 L2,11.9860144 L2,3.52672036 C2,3.2767001 2.18457451,3.06508783 2.43221435,3.03119226 L9.93233214,2.00461755 C9.97731366,1.99846073 10.0229239,1.99846082 10.0679054,2.00461782 Z M10,3.0046332 L3,3.96291226 L2.999,5.996 L11.75,5.99650446 C11.8880712,5.99650446 12,6.10843328 12,6.24650446 L12,6.74679576 C12,6.88486695 11.8880712,6.99679576 11.75,6.99679576 L2.998,6.996 L2.99604279,11.8971136 L3.0093359,12.0545156 C3.21754874,13.6781056 5.9246426,15.4287732 9.51519543,16.7652367 L10.002,16.9406915 L10.3052047,16.8323291 C13.9225749,15.5179471 16.7544652,13.7441337 16.9865189,12.1244524 L17,11.9860144 L17,3.96291226 L10,3.0046332 Z M15.75,5.49635882 C15.8880712,5.49635882 16,5.60828763 16,5.74635882 L16,7.24694141 C16,7.38501259 15.8880712,7.49694141 15.75,7.49694141 L14.25,7.49694141 C14.1119288,7.49694141 14,7.38501259 14,7.24694141 L14,5.74635882 C14,5.60828763 14.1119288,5.49635882 14.25,5.49635882 L15.75,5.49635882 Z" id="形状结合" fill="#101724" fill-rule="nonzero"></path>
    </g>
</svg>