<?xml version="1.0" encoding="UTF-8"?>
<svg width="20px" height="20px" viewBox="0 0 20 20" version="1.1" xmlns="http://www.w3.org/2000/svg" xmlns:xlink="http://www.w3.org/1999/xlink">
    <!-- Generator: Sketch 60 (88103) - https://sketch.com -->
    <title>图标/计算/云监控/灰色</title>
    <desc>Created with Sketch.</desc>
    <g id="图标/计算/云监控/灰色" stroke="none" stroke-width="1" fill="none" fill-rule="evenodd">
        <path d="M10,1 C14.418278,1 18,4.581722 18,9 C18,12.6871311 15.505618,15.7916681 12.1122748,16.7181902 L12.1630229,16.7041529 L12.1630229,16.7041529 L13.2,18 L16.75,18 C16.8880712,18 17,18.1119288 17,18.25 L17,18.75 C17,18.8880712 16.8880712,19 16.75,19 L3.25,19 C3.11192881,19 3,18.8880712 3,18.75 L3,18.25 C3,18.1119288 3.11192881,18 3.25,18 L6.8,18 L7.8379709,16.7044312 L7.86084176,16.7107992 C4.48121583,15.7752556 2,12.6773873 2,9 C2,4.581722 5.581722,1 10,1 Z M10,17 C9.62434433,17 9.25473606,16.974108 8.89286244,16.9240112 L8.93688505,16.929981 L8.93688505,16.929981 L8.079,18 L11.92,18 L11.0641163,16.929848 L11.1151335,16.9229002 C10.750709,16.9737251 10.3784229,17 10,17 Z M10,2 C6.13400675,2 3,5.13400675 3,9 C3,12.8659932 6.13400675,16 10,16 C13.8659932,16 17,12.8659932 17,9 C17,5.13400675 13.8659932,2 10,2 Z M12.0896327,5.5907754 L12.2094214,5.66547088 C12.2265025,5.67655357 12.2421416,5.68695299 12.2563389,5.69666914 C13.3091592,6.41718406 14,7.62791477 14,9 C14,11.209139 12.209139,13 10,13 C7.790861,13 6,11.209139 6,9 C6,7.62976126 6.68898263,6.42044305 7.73941253,5.69958072 C7.78318541,5.66954137 7.84049883,5.63310242 7.91135277,5.59026387 C8.02123946,5.52378983 8.16360992,5.55141185 8.24069055,5.654137 L8.54258611,6.05647242 C8.62559003,6.16689136 8.60322942,6.32367212 8.49273837,6.40657995 C8.48467396,6.41263115 8.47625104,6.4181892 8.46751572,6.42322368 C8.4086633,6.45714248 8.36002234,6.48709522 8.32159286,6.51308192 C7.52419357,7.05229741 7,7.96493272 7,9 C7,10.6568542 8.34314575,12 10,12 C11.6568542,12 13,10.6568542 13,9 C13,7.95127587 12.4618826,7.02823579 11.646702,6.49193402 C11.6160746,6.47178451 11.5785062,6.44888914 11.5339968,6.42324789 C11.4142582,6.35438622 11.3731275,6.20146514 11.4420777,6.0817776 C11.4471204,6.07302415 11.4526888,6.06458426 11.4587524,6.05650432 L11.7602955,5.65468682 C11.8373505,5.55193537 11.9797284,5.52431968 12.0896327,5.5907754 Z M10.75,8 C10.8880712,8 11,8.11192881 11,8.25 L11,9.75 C11,9.88807119 10.8880712,10 10.75,10 L9.25,10 C9.11192881,10 9,9.88807119 9,9.75 L9,8.25 C9,8.11192881 9.11192881,8 9.25,8 L10.75,8 Z" id="形状结合" fill="#101724" fill-rule="nonzero"></path>
    </g>
</svg>